:SAMPLES-PER-SECOND 30
:FULLY-SPECIFIED
:DEGREES
440
root  -2.01821 33.0876 4.75126 -1.82019 -57.7474 -10.2486
RightUpLeg  -0.916203 -0.227197 -3.11156
RightLeg  28.3662 2.87202 1.31208
RightFoot  4.09584 0.0204815 -0.195191
RightToes  -45.3944 -0.262946 -0.343523
Spine  4.39967 -3.87882 -2.07006
Spine1  7.21849 -9.27571 -2.98581
HEad  -20.0043 -23.7908 18.3302
LeftShoulder1  0 -2.42657e-020 -4.95415e-022
LeftArm  -158.172 -78.0653 71.3205
LeftForeArm  18.6399 -36.1704 -7.40411
LeftHand  0.0512033 2.2044 2.28374
RightShoulder  0 2.42657e-020 1.07489e-018
RightArm  -44.7313 58.4101 26.6068
RightForeArm  56.7531 38.9497 8.15763
RightHand  -6.34852 25.1487 -27.5609
LeftUpLeg  -10.6128 3.74709 3.35872
LeftLeg  41.3133 0.0102453 0.00232167
LeftFoot  -6.28038 -0.0201132 -0.366624
LeftToes  2.77607 1.28829e-006 1.15665e-007
441
root  -2.68348 30.892 4.48144 -5.09995 -57.8829 -12.7472
RightUpLeg  -2.40011 -2.44372 -2.01303
RightLeg  43.8675 3.06397 2.55488
RightFoot  -9.33946 -0.100855 -0.857185
RightToes  -46.2606 -0.270326 -0.347688
Spine  6.77978 -3.38584 -2.06615
Spine1  11.5437 -7.72888 -3.44058
HEad  -18.302 -23.1393 17.9335
LeftShoulder1  0 -2.42657e-020 -4.95415e-022
LeftArm  -102.916 -78.7318 16.7191
LeftForeArm  18.1186 -47.5104 -11.1128
LeftHand  0.0419983 1.69028 2.46635
RightShoulder  0 2.42657e-020 1.07489e-018
RightArm  -35.2614 45.8808 35.3332
RightForeArm  59.2152 60.4624 18.1663
RightHand  -6.14018 25.5812 -26.2211
LeftUpLeg  -13.6345 1.5503 5.17925
LeftLeg  59.1635 1.17468 1.69717
LeftFoot  -15.7565 -0.11642 -0.841328
LeftToes  1.66532 1.28829e-006 1.15665e-007
442
root  -3.19418 29.46 4.26074 -3.54883 -58.5465 -15.0684
RightUpLeg  -5.48883 -1.29724 0.0839411
RightLeg  52.412 1.83535 2.03592
RightFoot  -16.8767 -0.179478 -0.832267
RightToes  -45.4757 -0.263636 -0.343918
Spine  7.0328 -2.29707 -2.05097
Spine1  12.0864 -4.57515 -4.03332
HEad  -17.4125 -23.6483 18.296
LeftShoulder1  0 -2.42657e-020 -4.95415e-022
LeftArm  -54.3566 -70.06 -31.8048
LeftForeArm  29.7272 -67.0903 -24.8007
LeftHand  0.0107354 0.316473 3.44026
RightShoulder  0 2.42657e-020 1.07489e-018
RightArm  -26.8419 26.0494 42.9127
RightForeArm  121.513 79.8292 82.5689
RightHand  -6.7368 24.9484 -29.4344
LeftUpLeg  -17.6322 0.516763 6.80616
LeftLeg  69.3115 1.32314 2.90274
LeftFoot  -19.7993 -0.213693 -1.22441
LeftToes  -3.1026 1.28829e-006 1.15665e-007
443
root  -3.56602 28.9006 4.20556 -4.06064 -57.9124 -15.5855
RightUpLeg  -6.31465 -1.45443 0.96085
RightLeg  57.1184 1.06008 1.35563
RightFoot  -19.4306 -0.164509 -0.583324
RightToes  -43.4897 -0.246943 -0.333974
Spine  7.72354 -2.39184 -2.51742
Spine1  13.504 -4.75056 -4.72802
HEad  -16.428 -23.5106 20.2153
LeftShoulder1  0 -2.42657e-020 -4.95415e-022
LeftArm  -37.3668 -53.0479 -47.4042
LeftForeArm  78.7576 -79.4243 -72.5295
LeftHand  -0.153107 -2.05946 8.16006
RightShoulder  0 2.42657e-020 1.07489e-018
RightArm  -15.3368 8.32639 51.4082
RightForeArm  -171.624 74.0749 141.291
RightHand  -8.65087 23.6248 -39.4058
LeftUpLeg  -19.4314 -2.31533 6.57181
LeftLeg  74.8968 1.76624 5.15751
LeftFoot  -18.9021 -0.320306 -1.924
LeftToes  -6.95484 1.28829e-006 1.15665e-007
444
root  -3.76791 28.8665 4.11419 -2.66135 -56.596 -17.3553
RightUpLeg  -5.49933 -3.2667 1.88754
RightLeg  56.4883 1.2625 1.59267
RightFoot  -19.7633 -0.183659 -0.676758
RightToes  -43.0967 -0.243682 -0.331939
Spine  7.84484 -2.8612 -2.64468
Spine1  14.1014 -5.87012 -4.56049
HEad  -16.247 -23.0951 21.0294
LeftShoulder1  0 -2.42657e-020 -4.95415e-022
LeftArm  -27.3213 -33.8933 -54.5236
LeftForeArm  131.838 -78.4082 -119.455
LeftHand  -0.548515 -4.40311 13.8468
RightShoulder  0 2.42657e-020 1.07489e-018
RightArm  -1.87692 -5.19806 58.0441
RightForeArm  -164.211 74.8372 138.95
RightHand  -10.0333 20.5402 -51.3409
LeftUpLeg  -20.3095 -3.65408 7.4058
LeftLeg  76.2437 2.00901 6.3463
LeftFoot  -18.685 -0.380563 -2.31291
LeftToes  -5.39504 1.28829e-006 1.15665e-007
445
root  -3.75617 29.1742 4.01696 -0.453156 -56.4454 -18.5872
RightUpLeg  -5.6799 -4.66217 2.20356
RightLeg  54.2061 2.17926 2.58276
RightFoot  -18.2521 -0.226142 -1.03018
RightToes  -43.9792 -0.251026 -0.336479
Spine  7.12813 -2.83264 -2.987
Spine1  13.2754 -5.72381 -5.31642
HEad  -14.8534 -22.3699 23.1135
LeftShoulder1  0 -2.42657e-020 -4.95415e-022
LeftArm  -20.2148 -18.5531 -60.8238
LeftForeArm  125.13 -79.2806 -109.479
LeftHand  -0.857352 -6.12632 15.5659
RightShoulder  0 2.42657e-020 1.07489e-018
RightArm  5.63234 -15.5511 65.9307
RightForeArm  149.503 79.9531 89.1159
RightHand  -10.8103 24.608 -46.5443
LeftUpLeg  -19.6776 -2.45821 8.4347
LeftLeg  72.951 2.36629 6.20743
LeftFoot  -20.8312 -0.46042 -2.50441
LeftToes  -0.57899 1.28829e-006 1.15665e-007
446
root  -3.53938 29.7536 3.95422 1.78198 -57.0339 -18.9024
RightUpLeg  -6.26251 -5.62688 1.87938
RightLeg  50.4529 3.50252 3.67139
RightFoot  -15.37 -0.22862 -1.31664
RightToes  -45.0498 -0.260027 -0.341835
Spine  6.30126 -2.25286 -3.34678
Spine1  12.0267 -4.44594 -6.17648
HEad  -12.3117 -22.8054 24.5742
LeftShoulder1  0 -2.42657e-020 -4.95415e-022
LeftArm  -17.0306 -7.5742 -66.6591
LeftForeArm  78.3995 -78.8516 -64.5987
LeftHand  -0.248542 -3.5094 7.74488
RightShoulder  0 2.42657e-020 1.07489e-018
RightArm  3.31946 -20.4678 74.7774
RightForeArm  90.9971 70.777 30.3823
RightHand  -7.5098 29.2757 -27.8453
LeftUpLeg  -18.3889 -1.43039 8.88271
LeftLeg  66.9401 2.5232 4.97969
LeftFoot  -21.8721 -0.420223 -2.17457
LeftToes  1.12072 1.28829e-006 1.15665e-007
